HIERARCHY
ROOT Hips
{
	OFFSET 0.000000 0.000000 0.000000
	CHANNELS 6 Xposition Yposition Zposition Xrotation Yrotation Zrotation
	JOINT LeftUpLeg_virtual
	{
		OFFSET 0.000000 0.000000 0.000000
		CHANNELS 3 Xrotation Yrotation Zrotation
		JOINT LeftUpLeg
		{
			OFFSET 13.026900 -6.336304 -1.092800
			CHANNELS 3 Xrotation Yrotation Zrotation
			JOINT LeftLeg
			{
				OFFSET 0.524474 -46.096886 9.782700
				CHANNELS 3 Xrotation Yrotation Zrotation
				JOINT LeftFoot
				{
					OFFSET -0.524474 -53.427422 -12.948200
					CHANNELS 3 Xrotation Yrotation Zrotation
					JOINT LeftToeBase
					{
						OFFSET 0.192200 -14.009700 16.364100
						CHANNELS 3 Xrotation Yrotation Zrotation
						JOINT LeftToe_End
						{
							OFFSET -1.784700 -0.561700 9.474800
							CHANNELS 3 Xrotation Yrotation Zrotation
							End Site
							{
								OFFSET 0 0 0
							}
						}
					}
				}
			}
		}
	}
	JOINT RightUpLeg_virtual
	{
		OFFSET 0.000000 0.000000 0.000000
		CHANNELS 3 Xrotation Yrotation Zrotation
		JOINT RightUpLeg
		{
			OFFSET -12.883000 -6.336304 -1.092800
			CHANNELS 3 Xrotation Yrotation Zrotation
			JOINT RightLeg
			{
				OFFSET -0.524587 -46.096825 9.782800
				CHANNELS 3 Xrotation Yrotation Zrotation
				JOINT RightFoot
				{
					OFFSET 0.524587 -53.427383 -12.948300
					CHANNELS 3 Xrotation Yrotation Zrotation
					JOINT RightToeBase
					{
						OFFSET -0.192200 -14.009700 16.364100
						CHANNELS 3 Xrotation Yrotation Zrotation
						JOINT RightToe_End
						{
							OFFSET 1.784700 -0.561700 9.474800
							CHANNELS 3 Xrotation Yrotation Zrotation
							End Site
							{
								OFFSET 0 0 0
							}
						}
					}
				}
			}
		}
	}
	JOINT Spine_virtual
	{
		OFFSET 0.000000 0.000000 0.000000
		CHANNELS 3 Xrotation Yrotation Zrotation
		JOINT Spine
		{
			OFFSET 0.072000 7.257294 -0.789700
			CHANNELS 3 Xrotation Yrotation Zrotation
			JOINT Spine1
			{
				OFFSET 0.000000 12.508769 -0.658067
				CHANNELS 3 Xrotation Yrotation Zrotation
				JOINT Spine1_split
				{
					OFFSET 0.000000 12.508769 -0.658067
					CHANNELS 3 Xrotation Yrotation Zrotation
					JOINT Spine2
					{
						OFFSET 0.000000 12.508769 -0.658067
						CHANNELS 3 Xrotation Yrotation Zrotation
						JOINT Neck_virtual
						{
							OFFSET 0.000000 0.000000 0.000000
							CHANNELS 3 Xrotation Yrotation Zrotation
							JOINT Neck
							{
								OFFSET 0.000000 14.033295 7.520400
								CHANNELS 3 Xrotation Yrotation Zrotation
								JOINT Head
								{
									OFFSET 0.000000 8.198502 5.703100
									CHANNELS 3 Xrotation Yrotation Zrotation
									JOINT HeadTop_End
									{
										OFFSET 0.000000 17.760803 13.332701
										CHANNELS 3 Xrotation Yrotation Zrotation
										End Site
										{
											OFFSET 0 0 0
										}
									}
								}
							}
						}
						JOINT LeftShoulder_virtual
						{
							OFFSET 0.000000 0.000000 0.000000
							CHANNELS 3 Xrotation Yrotation Zrotation
							JOINT LeftShoulder
							{
								OFFSET 6.292450 5.785301 -0.669000
								CHANNELS 3 Xrotation Yrotation Zrotation
								JOINT LeftShoulder_split
								{
									OFFSET 6.292450 5.785301 -0.669000
									CHANNELS 3 Xrotation Yrotation Zrotation
									JOINT LeftArm
									{
										OFFSET 13.907140 -6.093903 1.965100
										CHANNELS 3 Xrotation Yrotation Zrotation
										JOINT LeftForeArm
										{
											OFFSET 34.140198 0.000000 0.000000
											CHANNELS 3 Xrotation Yrotation Zrotation
											JOINT LeftHand
											{
												OFFSET 40.960209 0.000000 0.000000
												CHANNELS 3 Xrotation Yrotation Zrotation
												End Site
												{
													OFFSET 0 0 0
												}
											}
										}
									}
								}
							}
						}
						JOINT RightShoulder_virtual
						{
							OFFSET 0.000000 0.000000 0.000000
							CHANNELS 3 Xrotation Yrotation Zrotation
							JOINT RightShoulder
							{
								OFFSET -6.292450 5.785301 -0.669000
								CHANNELS 3 Xrotation Yrotation Zrotation
								JOINT RightShoulder_split
								{
									OFFSET -6.292450 5.785301 -0.669000
									CHANNELS 3 Xrotation Yrotation Zrotation
									JOINT RightArm
									{
										OFFSET -13.907140 -6.093903 1.965100
										CHANNELS 3 Xrotation Yrotation Zrotation
										JOINT RightForeArm
										{
											OFFSET -34.140198 0.000000 0.000000
											CHANNELS 3 Xrotation Yrotation Zrotation
											JOINT RightHand
											{
												OFFSET -40.960209 0.000000 0.000000
												CHANNELS 3 Xrotation Yrotation Zrotation
												End Site
												{
													OFFSET 0 0 0
												}
											}
										}
									}
								}
							}
						}
					}
				}
			}
		}
	}
}
MOTION
Frames: 5
Frame Time: 0.03333333
-289.014069 118.984604 -14.204556 0.000000 0.000000 0.000000 2.627180 0.855884 0.501279 -14.262123 18.718974 11.718102 13.697537 -6.591395 2.494897 -3.778715 -14.552309 -3.032692 -1.689359 -0.126926 0.748883 0.000000 0.000000 0.000000 1.385476 3.501542 0.042047 -7.936676 -6.127393 -13.429199 13.365989 -3.102130 3.609821 2.265300 -2.266703 4.381003 -8.446966 -0.261645 -0.926688 0.000000 0.000000 0.000000 3.225500 1.393451 -0.211188 0.742384 1.257250 1.192915 2.445064 0.901733 0.438900 0.805886 -1.947516 0.188696 0.000000 0.000000 0.000000 1.861753 0.565913 0.492813 3.535009 -0.449834 -1.553557 -7.411009 -6.153306 1.423382 0.000000 0.000000 0.000000 0.659336 0.467918 0.160999 0.802118 -0.961988 -10.428919 -2.389512 -0.880581 0.196813 8.293323 -17.378274 -62.807414 -0.372036 -21.947998 0.328111 0.000000 0.000000 0.000000 1.382140 0.617460 0.904885 0.636535 5.251002 13.740029 1.637584 3.106793 -3.102911 12.691708 8.514031 63.591479 1.049296 31.214818 0.397101 0.000000 0.000000 0.000000 
-288.829987 118.909187 -14.157459 0.000000 0.000000 0.000000 2.375122 0.968446 0.378438 -14.472686 18.845358 11.721714 13.878113 -6.737447 2.724310 -3.404804 -14.593184 -2.705968 -1.763284 -0.150632 0.661681 0.000000 0.000000 0.000000 1.149772 3.548442 -0.085960 -7.844123 -6.039424 -13.250131 13.624092 -2.909690 3.532982 1.877376 -2.121008 4.492530 -8.480252 -0.226656 -1.049259 0.000000 0.000000 0.000000 2.964682 1.395933 -0.239855 0.787588 1.285687 1.347781 2.533361 0.967711 0.447069 0.841434 -1.781115 0.195634 0.000000 0.000000 0.000000 1.748404 0.591192 0.534095 3.344301 -0.496260 -1.733456 -7.904374 -6.512112 1.509191 0.000000 0.000000 0.000000 0.660267 0.525082 0.162919 0.844052 -0.223738 -10.001766 -2.312060 -1.030363 0.367522 8.119217 -17.598746 -62.367714 -0.721563 -24.997079 0.196917 0.000000 0.000000 0.000000 1.442154 0.681842 0.909297 0.665256 5.107039 13.499290 1.553051 3.103914 -2.943641 13.155710 9.826033 61.921068 0.912963 34.289933 0.451282 0.000000 0.000000 0.000000 
-288.619415 118.955879 -14.070690 0.000000 0.000000 0.000000 2.124720 0.988039 0.307521 -14.701969 18.803924 11.652859 14.189083 -6.856837 2.943701 -2.676203 -14.745834 -2.407399 -1.998039 -0.190162 0.643605 0.000000 0.000000 0.000000 0.917936 3.538409 -0.143100 -7.705667 -5.963806 -13.016759 13.750055 -2.746412 3.367102 1.409076 -1.962750 4.645288 -8.408119 -0.180963 -1.148902 0.000000 0.000000 0.000000 2.755179 1.345334 -0.219999 0.755514 1.350107 1.487276 2.610905 1.082923 0.455285 0.928393 -1.626961 0.220017 0.000000 0.000000 0.000000 1.619611 0.673324 0.577682 3.336468 -0.560544 -1.894886 -8.374930 -6.872848 1.619735 0.000000 0.000000 0.000000 0.683805 0.639877 0.200035 0.844722 0.692030 -9.245849 -2.119120 -1.098169 0.473061 7.789072 -17.116126 -62.068402 -1.217638 -31.034699 -0.093974 0.000000 0.000000 0.000000 1.477441 0.795633 0.907576 0.714584 4.774725 12.982130 1.623906 3.138713 -2.648223 13.575772 10.888139 59.935545 0.795835 39.970994 0.407557 0.000000 0.000000 0.000000 
-288.438049 119.136734 -14.053272 0.000000 0.000000 0.000000 1.948998 1.006229 0.314538 -14.981139 18.550041 11.463253 14.619815 -6.880561 3.169904 -1.799467 -14.944293 -2.010199 -2.216215 -0.258775 0.754426 0.000000 0.000000 0.000000 0.741458 3.429864 -0.126340 -7.525506 -5.871058 -12.743915 13.682542 -2.615796 3.118357 1.034336 -1.806458 4.902684 -8.184244 -0.128936 -1.213946 0.000000 0.000000 0.000000 2.689455 1.219566 -0.141945 0.623645 1.427768 1.598969 2.659864 1.234018 0.444957 1.035167 -1.451991 0.200772 0.000000 0.000000 0.000000 1.508998 0.792051 0.594377 3.538228 -0.611937 -2.013272 -8.789032 -7.135701 1.784866 0.000000 0.000000 0.000000 0.721749 0.788925 0.248776 0.789462 1.664381 -8.301755 -1.867970 -1.060459 0.639704 6.982736 -15.921752 -62.041497 -1.756962 -39.613352 -0.565793 0.000000 0.000000 0.000000 1.481675 0.943878 0.878847 0.763595 4.264300 12.151288 1.763646 3.172096 -2.240783 13.584608 11.404299 57.951088 0.714573 48.047997 0.248015 0.000000 0.000000 0.000000 
-288.278320 119.369324 -14.183689 0.000000 0.000000 0.000000 1.944923 1.062626 0.368318 -15.421573 18.142444 11.116152 15.175709 -6.843958 3.373015 -1.057652 -15.101664 -1.492860 -2.299336 -0.370883 0.989380 0.000000 0.000000 0.000000 0.711791 3.253392 -0.039031 -7.501479 -5.754510 -12.518109 13.549421 -2.431699 2.815639 0.818901 -1.637760 5.408542 -7.819161 -0.066370 -1.240698 0.000000 0.000000 0.000000 2.808822 1.059868 -0.000716 0.409714 1.482512 1.660885 2.680829 1.399183 0.397405 1.189477 -1.409091 0.256343 0.000000 0.000000 0.000000 1.450796 0.925683 0.572389 3.835064 -0.628816 -2.062807 -9.195553 -7.185980 2.019521 0.000000 0.000000 0.000000 0.754632 0.945975 0.267119 0.685588 2.549332 -7.321229 -1.731493 -0.920410 0.787992 5.306930 -14.243738 -62.288375 -2.276405 -49.200540 -1.204405 0.000000 0.000000 0.000000 1.468539 1.098290 0.810371 0.793654 3.629853 11.085870 1.919621 3.129587 -1.820093 12.746628 11.235791 56.244634 0.640316 57.562505 -0.002662 0.000000 0.000000 0.000000 
